# xmcd
#
# Track frame offsets: 
#        150
#        17462
#        27868
#        42514
#        57055
#        71792
#        87995
#        104627
#        116467
#        128487
#        147139
#
# Disc length: 2132 seconds
#
# Revision: 0
# Processed by: cddbd v1.5.2PL0 Copyright (c) Steve Scherf et al.
# Submitted via: ExactAudioCopyFreeDBPlugin 1.0
#
DISCID=8f08520b
DTITLE=Pomme - Les Failles
DYEAR=2019
DGENRE=Pop
TTITLE0=Anxiété
TTITLE1=Je ne sais pas danser
TTITLE2=Grandiose
TTITLE3=Les Séquoias
TTITLE4=Les Oiseaux
TTITLE5=Pourquoi la mort te fait peur
TTITLE6=La Lumière
TTITLE7=Soleil Soleil
TTITLE8=Saphir
TTITLE9=Une Minute
TTITLE10=Chapelle
EXTD=
EXTT0=
EXTT1=
EXTT2=
EXTT3=
EXTT4=
EXTT5=
EXTT6=
EXTT7=
EXTT8=
EXTT9=
EXTT10=
PLAYORDER=
